<svg xmlns="http://www.w3.org/2000/svg" viewBox="0 0 1200 600">
  <rect width="1200" height="600" fill="#ffffff"/>
  <rect width="300" height="600" fill="#d52b1e"/>
  <rect width="300" height="600" x="900" fill="#d52b1e"/>
  <path fill="#d52b1e" d="M600 90l-45 84c-5 9-14 8-23 3l-33-17 25 130c5 24-11 24-19 13l-57-64-9 33c-1 4-6 9-13 7l-72-15 19 69c4 15 7 22-4 26l-26 12 124 101c5 4 8 11 6 17l-11 36c43-5 81-12 124-17 4 0 10 6 10 10l-6 131h21l-3-131c0-4 6-10 10-10 43 5 81 12 124 17l-11-36c-2-6 1-13 6-17l124-101-26-12c-11-4-8-11-4-26l19-69-72 15c-7 2-12-3-13-7l-9-33-57 64c-8 11-24 11-19-13l25-130-33 17c-9 5-18 6-23-3z"/>
</svg>
